<svg id="Layer_1" data-name="Layer 1" xmlns="http://www.w3.org/2000/svg" viewBox="0 0 81.24 81.24"><defs><style>.cls-1{fill:#fec478;}.cls-2{fill:#fea832;}.cls-3{fill:#994c0f;}.cls-4{fill:#713708;}</style></defs><path class="cls-1" d="M78.51,81.24H2.73A2.73,2.73,0,0,1,0,78.51V2.73A2.73,2.73,0,0,1,2.73,0H78.51a2.73,2.73,0,0,1,2.73,2.73V78.51A2.73,2.73,0,0,1,78.51,81.24Z"/><path class="cls-2" d="M78.51,81.24H40.62V0H78.51a2.73,2.73,0,0,1,2.73,2.73V78.51A2.73,2.73,0,0,1,78.51,81.24Z"/><path class="cls-3" d="M76.48,76.48H4.76V4.76H76.48Z"/><path class="cls-4" d="M76.48,76.48H40.62V4.76H76.48Z"/><path class="cls-1" d="M32.93,28.82h4.64l10.29,27H42.45l-2.52-6.75H30.49L28,55.86h-5.4Zm6,16.6L35.25,34.8,31.37,45.42Z"/><path class="cls-2" d="M50.33,33.12V28.05h5.1v5.07Zm0,22.74v-20h5.1v20Z"/><polygon class="cls-2" points="40.62 36.84 40.62 50.96 42.45 55.86 47.85 55.86 40.62 36.84"/></svg>