<svg id="Layer_1" data-name="Layer 1" xmlns="http://www.w3.org/2000/svg" viewBox="0 0 39.01 39.01"><defs><style>.cls-1{fill:#e0fbfc;}.cls-2{fill:#293241;}</style></defs><circle class="cls-1" cx="19.5" cy="19.5" r="19.5"/><path class="cls-2" d="M26.5,16.11c-5.64,0-5.64,5.61-5.64,5.64a5.21,5.21,0,0,0,5.64,5.62s5,.29,5-3.91H28.94S29,25,26.58,25A2.39,2.39,0,0,1,24,22.49h7.61S32.44,16.11,26.5,16.11ZM24,20.52a2.63,2.63,0,0,1,2.58-2.26,2.17,2.17,0,0,1,2.24,2.26Zm-6.45-1.44a2.55,2.55,0,0,0,2.24-2.8c0-2.62-1.83-3.91-4.15-3.91H8V27.06h7.64s4.67.15,4.67-4.33C20.28,22.73,20.48,19.08,17.52,19.08ZM11.33,15h4.28s1,0,1,1.53-.6,1.75-1.3,1.75h-4Zm4.06,9.48H11.33V20.52h4.28s1.55,0,1.54,2C17.15,24.26,16,24.44,15.39,24.46Zm8-11.22v1.81H29.4V13.24Z"/></svg>