<svg id="Layer_1" data-name="Layer 1" xmlns="http://www.w3.org/2000/svg" xmlns:xlink="http://www.w3.org/1999/xlink" viewBox="0 0 402.38 534.42"><defs><style>.cls-1{fill:#3d5a80;}.cls-2{fill:#03053f;}.cls-3{fill:#ccc;}.cls-4{fill:#0e24a5;}.cls-5{fill:#425ac2;}.cls-6{fill:#ffdee0;}.cls-7{fill:#a4b8ea;}.cls-8{clip-path:url(#clip-path);}.cls-9{fill:#d6bdbf;}.cls-10{fill:#0f0f0f;}</style><clipPath id="clip-path"><path class="cls-1" d="M331.94,273.94h-100L219.43,125.75a22.75,22.75,0,0,1,22.68-24.67h79.64a22.76,22.76,0,0,1,22.68,24.67Z"/></clipPath></defs><path class="cls-2" d="M360.62,315.1V84.76A16.22,16.22,0,0,0,344.4,68.54H217.88a16.22,16.22,0,0,0-16.22,16.22V312.51Z"/><rect class="cls-3" x="277.12" y="366.85" width="23.25" height="89"/><rect class="cls-3" x="281.93" y="430.19" width="13.63" height="89"/><path class="cls-2" d="M205.32,378.08H353.87c7.78,0,14.08-5.27,14.08-11.76V355.63c0-6.49-6.3-11.76-14.08-11.76H205.32c-7.78,0-14.09,5.27-14.09,11.76v10.69C191.23,372.81,197.54,378.08,205.32,378.08Z"/><path class="cls-4" d="M205.32,346.72H353.87c7.78,0,14.08-5.27,14.08-11.76V324.27c0-6.5-6.3-11.76-14.08-11.76H205.32c-7.78,0-14.09,5.26-14.09,11.76V335C191.23,341.45,197.54,346.72,205.32,346.72Z"/><path class="cls-3" d="M355.45,520.82a38.17,38.17,0,0,0,6.45-21c0-28-32.82-50.73-73.16-50.73s-73.15,22.76-73.15,50.73a37.91,37.91,0,0,0,5.56,19.59L231.9,513a25.53,25.53,0,0,1-3.8-13.18c0-20.72,27.77-38.22,60.64-38.22s60.65,17.5,60.65,38.22A25.83,25.83,0,0,1,345,514Z"/><path class="cls-4" d="M366.88,519.59a14.83,14.83,0,1,0-14.83,14.83A14.83,14.83,0,0,0,366.88,519.59Z"/><path class="cls-4" d="M304.35,519.59a14.84,14.84,0,1,0-14.84,14.83A14.83,14.83,0,0,0,304.35,519.59Z"/><path class="cls-5" d="M179.39,273.76H332.23v36.68a36,36,0,0,1-36,35.95H179.39a36,36,0,0,1-35.95-35.95v-.73A36,36,0,0,1,179.39,273.76Z"/><path class="cls-5" d="M145.66,303l-18.83,209.5h27.68s44.29-136.42,48.72-180.71-27.68-36.54-27.68-36.54Z"/><path class="cls-5" d="M233.13,303l-18.82,209.5H242s44.29-136.42,48.72-180.71S263,295.22,263,295.22Z"/><path class="cls-6" d="M127.39,512.47h27.12v20.81h-55c-3.63,0-4.88-8.16-1.7-9.91Z"/><path class="cls-6" d="M214.31,512.47h27.12v20.81h-55c-3.63,0-4.88-8.16-1.7-9.91Z"/><path class="cls-7" d="M331.94,273.94h-100L219.43,125.75a22.75,22.75,0,0,1,22.68-24.67h79.64a22.76,22.76,0,0,1,22.68,24.67Z"/><path class="cls-6" d="M288.24,110.31H272.7c-4.82,0-8.74-4.41-8.74-9.85V81.31c0-5.44,3.92-9.85,8.74-9.85h15.54c4.83,0,8.74,4.41,8.74,9.85v19.15C297,105.9,293.07,110.31,288.24,110.31Z"/><polygon class="cls-1" points="221.72 114.68 174.23 196.31 211.17 211.98 240.57 163.67 221.72 114.68"/><path class="cls-1" d="M344,104.86c46.54,40.47,57.15,94.06,57.15,94.06,2.9,6.2.67,16.07-5.82,18.21l-90.67,45.26L292,241l63.48-48.33-46.64-50.28,2.43-41.18S337,98.8,344,104.86Z"/><path class="cls-1" d="M331.94,273.94h-100L219.43,125.75a22.75,22.75,0,0,1,22.68-24.67h79.64a22.76,22.76,0,0,1,22.68,24.67Z"/><g class="cls-8"><rect class="cls-1" x="280.45" y="222.02" width="74.29" height="1.6" transform="translate(-65.42 284.57) rotate(-44.21)"/><rect class="cls-1" x="295.43" y="249.78" width="68.82" height="1.6" transform="translate(-78.7 182.2) rotate(-27.72)"/></g><rect class="cls-3" x="151.61" y="261.75" width="156.14" height="13.23"/><path class="cls-6" d="M306.3,262.13H266.48l-2.91-17.48h30.05A11.52,11.52,0,0,1,305,254.28Z"/><polygon class="cls-3" points="277.09 262.3 151.72 262.3 134.52 184.68 259.89 184.68 277.09 262.3"/><path class="cls-5" d="M211.6,225.58a8.26,8.26,0,1,1-8.25-8.26A8.25,8.25,0,0,1,211.6,225.58Z"/><path class="cls-9" d="M262.49,88S264,94.89,264,96.56c-.09,2.07,0,5.73.28,6.35s9.24-.23,12.84-1.22c12.31-3.4,19.89-23,19.76-25Z"/><path class="cls-6" d="M250.89,85.23c14.05,17,29,7,46-7A39.88,39.88,0,1,0,246,16.8C229,30.85,236.84,68.27,250.89,85.23Z"/><path class="cls-10" d="M308.75,63.56c-1.27,2.81-10.63,3.65-8.15-4.42,3-9.86,3.23-24.77-7.74-22.71s-3.07,12.84-7.53,14.75S278,35.55,272.5,27.35,244.67,30,232.81,33.13,209.32,12.88,239.43,4c20.28-6,36.87-6.22,57,6.91C311.64,20.8,316.87,45.59,308.75,63.56Z"/><path class="cls-3" d="M124.61,2,23.51,18.56A27.68,27.68,0,0,0,.68,50.32l10.2,62.36a27.68,27.68,0,0,0,31.76,22.83L107,125l35.87,25.78a5.5,5.5,0,0,0,4.12,1,5.3,5.3,0,0,0,2-.76,5.5,5.5,0,0,0,2.54-5.59l-4.44-27.18a27.7,27.7,0,0,0,19.42-31l-10.2-62.36A27.69,27.69,0,0,0,124.61,2ZM111.27,105.84c1.48,9,39.72.74,30.69,2.22l-2,.33a5.53,5.53,0,0,0-4.57,6.35L138.52,134l-26.89-19.33c-1.19-.86,33.13,27.39,31.68,27.63L130.92,51.36c-9,1.47-25.43,7.22-26.91-1.81l-92.41-1c-1.48-9-12,5.62-3,4.14L138.72,78.46c9-1.47,12.07-43.66,10.08-50.08Z"/><path class="cls-1" d="M119.3,40.37,98.84,68.9l28.67,20.27a7.16,7.16,0,0,0,.2-3.17l-7.18-42.7A7.18,7.18,0,0,0,119.3,40.37Z"/><path class="cls-1" d="M112.21,37.38,45.46,48.6a7.29,7.29,0,0,0-2.93,1.23l36.65,26a7.22,7.22,0,0,0,10.06-1.69l26.14-36.51A7,7,0,0,0,112.21,37.38Z"/><path class="cls-1" d="M39.74,53.75a7.16,7.16,0,0,0-.2,3.17l7.18,42.71A7.29,7.29,0,0,0,48,102.56L68.41,74Z"/><path class="cls-1" d="M96.05,72.82l-2.89,4.06A12,12,0,0,1,76.39,79.7l-4.06-2.89L51.87,105.35a7.31,7.31,0,0,0,3.17.2l66.75-11.23a7.29,7.29,0,0,0,2.93-1.23Z"/><circle class="cls-1" cx="117.13" cy="37.28" r="16.72"/><circle class="cls-3" cx="117.13" cy="37.28" r="12.04"/><path class="cls-1" d="M122.43,31.72a1.11,1.11,0,0,1,.29,1.53l-5.9,8.65a1.1,1.1,0,0,1-1.54.29l-4.11-2.81a1.09,1.09,0,0,1-.29-1.53,1.11,1.11,0,0,1,1.53-.29l3.21,2.19L120.9,32A1.09,1.09,0,0,1,122.43,31.72Z"/></svg>