<svg id="Capa_1" data-name="Capa 1" xmlns="http://www.w3.org/2000/svg" viewBox="0 0 512 512"><defs><style>.cls-1{fill:#e0fbfc;}</style></defs><path class="cls-1" d="M256,0C114.51,0,0,114.5,0,256S114.5,512,256,512,512,397.5,512,256,397.5,0,256,0ZM157,52.75a583.55,583.55,0,0,0-19.5,64.3A404.83,404.83,0,0,1,92.2,100.29,226.59,226.59,0,0,1,157,52.75ZM72.34,124.24a434.29,434.29,0,0,0,58.8,22.25A590.74,590.74,0,0,0,121.23,241H30.5A223.84,223.84,0,0,1,72.34,124.24Zm0,263.52A223.84,223.84,0,0,1,30.5,271h90.73a590.74,590.74,0,0,0,9.91,94.51A434.29,434.29,0,0,0,72.34,387.76ZM92.2,411.71A404.83,404.83,0,0,1,137.45,395a583.55,583.55,0,0,0,19.5,64.3A226.49,226.49,0,0,1,92.2,411.71ZM241,481.5a226.33,226.33,0,0,1-46.13-7.83,555,555,0,0,1-28.4-86.36A407.17,407.17,0,0,1,241,377.79Zm0-133.72A436.57,436.57,0,0,0,160.25,358a561.18,561.18,0,0,1-9-86.95H241ZM241,241H151.24a561.18,561.18,0,0,1,9-86.95A436.57,436.57,0,0,0,241,164.22Zm0-106.79a407.17,407.17,0,0,1-74.53-9.52,555,555,0,0,1,28.4-86.36A226.33,226.33,0,0,1,241,30.5Zm198.66-10A223.93,223.93,0,0,1,481.5,241H390.77a590.74,590.74,0,0,0-9.91-94.51A434.29,434.29,0,0,0,439.66,124.24ZM419.8,100.29a405.57,405.57,0,0,1-45.25,16.76,583.55,583.55,0,0,0-19.5-64.3A226.49,226.49,0,0,1,419.8,100.29ZM271,30.5a226.54,226.54,0,0,1,46.14,7.83,556,556,0,0,1,28.39,86.36A407.17,407.17,0,0,1,271,134.21Zm0,133.72a436.57,436.57,0,0,0,80.75-10.17,561.18,561.18,0,0,1,9,86.95H271Zm46.13,309.45A226.33,226.33,0,0,1,271,481.5V377.8a406.3,406.3,0,0,1,74.53,9.51A555,555,0,0,1,317.13,473.67ZM271,347.78V271h89.76a561.18,561.18,0,0,1-9,86.95A436.57,436.57,0,0,0,271,347.78Zm84.05,111.47a583.55,583.55,0,0,0,19.5-64.3,405.57,405.57,0,0,1,45.25,16.76A226.59,226.59,0,0,1,355.05,459.25Zm84.61-71.49a434.29,434.29,0,0,0-58.8-22.25A590.74,590.74,0,0,0,390.77,271H481.5A223.93,223.93,0,0,1,439.66,387.76Z"/></svg>