<svg id="Layer_1" data-name="Layer 1" xmlns="http://www.w3.org/2000/svg" viewBox="0 0 39.01 39.01"><defs><style>.cls-1{fill:#e0fbfc;}.cls-2{fill:#293241;}</style></defs><circle class="cls-1" cx="19.5" cy="18.75" r="16.38"/><path class="cls-2" d="M23.65,19.5a4.15,4.15,0,1,1-4.15-4.14A4.14,4.14,0,0,1,23.65,19.5Z"/><path class="cls-2" d="M29.21,12.16a3.89,3.89,0,0,0-.93-1.43,4,4,0,0,0-1.44-.93,6.91,6.91,0,0,0-2.31-.43c-1.31-.06-1.7-.07-5-.07s-3.71,0-5,.07a7,7,0,0,0-2.32.43A4.12,4.12,0,0,0,9.8,12.16a7,7,0,0,0-.43,2.32c-.06,1.31-.07,1.7-.07,5s0,3.72.07,5a6.91,6.91,0,0,0,.43,2.31,4.09,4.09,0,0,0,2.36,2.37,7,7,0,0,0,2.32.43c1.31.05,1.7.07,5,.07s3.72,0,5-.07a6.91,6.91,0,0,0,2.31-.43,4.13,4.13,0,0,0,2.37-2.37,6.73,6.73,0,0,0,.42-2.31c.06-1.31.08-1.7.08-5s0-3.71-.08-5A6.86,6.86,0,0,0,29.21,12.16ZM19.5,25.89a6.39,6.39,0,1,1,6.39-6.39A6.39,6.39,0,0,1,19.5,25.89Zm6.65-11.54a1.49,1.49,0,1,1,1.49-1.49A1.49,1.49,0,0,1,26.15,14.35Z"/><path class="cls-1" d="M19.5,0A19.51,19.51,0,1,0,39,19.5,19.5,19.5,0,0,0,19.5,0ZM30.64,24.12a8.56,8.56,0,0,1-.52,2.72,5.81,5.81,0,0,1-3.28,3.28,8.56,8.56,0,0,1-2.72.52c-1.19.05-1.57.06-4.62.06s-3.42,0-4.61-.06a8.5,8.5,0,0,1-2.72-.52,5.63,5.63,0,0,1-2-1.3,5.43,5.43,0,0,1-1.29-2,8.56,8.56,0,0,1-.52-2.72c0-1.19-.07-1.57-.07-4.62s0-3.42.07-4.61a8.5,8.5,0,0,1,.52-2.72,5.68,5.68,0,0,1,3.28-3.28,8.5,8.5,0,0,1,2.72-.52c1.19,0,1.57-.07,4.61-.07s3.43,0,4.62.07a8.56,8.56,0,0,1,2.72.52,5.43,5.43,0,0,1,2,1.29,5.63,5.63,0,0,1,1.3,2,8.5,8.5,0,0,1,.52,2.72c.05,1.19.06,1.57.06,4.61S30.69,22.93,30.64,24.12Z"/></svg>