<svg id="Layer_1" data-name="Layer 1" xmlns="http://www.w3.org/2000/svg" viewBox="0 0 81.24 81.24"><defs><style>.cls-1{fill:#f0db4f;}.cls-2{fill:#1c1c1c;}</style></defs><path class="cls-1" d="M0,78.65V2.6A2.59,2.59,0,0,1,2.6,0H78.65a2.59,2.59,0,0,1,2.59,2.6V78.65a2.59,2.59,0,0,1-2.59,2.59H2.6A2.59,2.59,0,0,1,0,78.65ZM48.3,66.94a13,13,0,0,0,5.22,5.62,17.43,17.43,0,0,0,14.42,1.22,9.68,9.68,0,0,0,5.58-4.49,10.71,10.71,0,0,0,1.25-5.88A9.91,9.91,0,0,0,71,55.69a26.26,26.26,0,0,0-5.92-3.37c-1.39-.62-2.81-1.2-4.17-1.88A7.94,7.94,0,0,1,59,49.15a3.3,3.3,0,0,1,1.42-5.49,5.2,5.2,0,0,1,2.74,0,4.91,4.91,0,0,1,2.88,2.19c.19.28.37.57.58.89L72.53,43a.47.47,0,0,0-.06-.17A10.84,10.84,0,0,0,66,37.39a14.83,14.83,0,0,0-7.85-.12,9.7,9.7,0,0,0-7.58,9.78,11.19,11.19,0,0,0,5.66,9.54c1,.58,2,1.09,3.07,1.6,1.68.81,3.41,1.5,5.08,2.32a7.42,7.42,0,0,1,1.76,1.23A3.25,3.25,0,0,1,67.06,65a3.54,3.54,0,0,1-2.54,2.57,8.09,8.09,0,0,1-5.73-.19,8.76,8.76,0,0,1-4-3.62c-.08-.13-.16-.25-.26-.39ZM36.55,37.28v.61q0,12.47,0,25a13.36,13.36,0,0,1-.14,2,3.1,3.1,0,0,1-2.23,2.86c-2.33.6-4,.1-5.33-1.7-.37-.51-.69-1.06-1-1.59l-.09-.15-6.35,3.51a11.38,11.38,0,0,0,5.73,5.82,14.1,14.1,0,0,0,9.24.75,11.13,11.13,0,0,0,7.09-6.22,15.45,15.45,0,0,0,.75-5.18V37.75c0-.15,0-.3,0-.47Z"/><path class="cls-2" d="M48.3,66.94l6.19-3.57c.1.14.18.26.26.39a8.76,8.76,0,0,0,4,3.62,8.09,8.09,0,0,0,5.73.19A3.54,3.54,0,0,0,67.06,65a3.25,3.25,0,0,0-.91-3.26,7.42,7.42,0,0,0-1.76-1.23c-1.67-.82-3.4-1.51-5.08-2.32a36.18,36.18,0,0,1-3.92-2.13,10.21,10.21,0,0,1-4.81-9.23,9.69,9.69,0,0,1,7.58-9.56,14.83,14.83,0,0,1,7.85.12,10.84,10.84,0,0,1,6.46,5.39.47.47,0,0,1,.06.17l-5.89,3.78c-.21-.32-.39-.61-.58-.89a4.91,4.91,0,0,0-2.88-2.19,5.2,5.2,0,0,0-2.74,0A3.3,3.3,0,0,0,59,49.15a7.94,7.94,0,0,0,1.86,1.29c1.36.68,2.78,1.26,4.17,1.88A26.26,26.26,0,0,1,71,55.69a9.91,9.91,0,0,1,3.8,7.72,10.71,10.71,0,0,1-1.25,5.88,9.68,9.68,0,0,1-5.58,4.49,17.43,17.43,0,0,1-14.42-1.22A13,13,0,0,1,48.3,66.94Z"/><path class="cls-2" d="M36.55,37.28h7.61c0,.17,0,.32,0,.47V62.94a15.7,15.7,0,0,1-.73,5.13A8.92,8.92,0,0,1,37.53,74a14.29,14.29,0,0,1-10.43-.41,11.38,11.38,0,0,1-5.73-5.82L27.57,64c.1.15.17.27.24.39.34.53.66,1.08,1,1.59,1.3,1.8,3,2.3,5.33,1.7a3.1,3.1,0,0,0,2.23-2.86,13.36,13.36,0,0,0,.14-2q0-12.48,0-25Z"/></svg>