<svg id="Layer_1" data-name="Layer 1" xmlns="http://www.w3.org/2000/svg" viewBox="0 0 274.29 57.76"><defs><style>.cls-1{font-size:31.75px;font-family:Lato-Light, Lato;font-weight:300;letter-spacing:0.35em;}.cls-1,.cls-2{fill:#e0fbfc;}</style></defs><text class="cls-1" transform="translate(82.06 41.37)">VIZIONS</text><path class="cls-2" d="M63.27,2.42H18.76a1.33,1.33,0,0,0-1.15,2L36.73,37.62a1.3,1.3,0,0,1,0,1.32l-3.26,5.61L8.81,3.07a1.31,1.31,0,0,0-1.14-.65H2.15a.9.9,0,0,0-.78,1.36L32.28,56a1.33,1.33,0,0,0,2.29,0L64.42,4.41A1.33,1.33,0,0,0,63.27,2.42ZM41.23,31,28.05,8.2H54.42Z"/></svg>