<svg id="Layer_1" data-name="Layer 1" xmlns="http://www.w3.org/2000/svg" viewBox="0 0 81.24 81.24"><defs><style>.cls-1{fill:#f8d9ff;}.cls-2{fill:#f3c0ff;}.cls-3{fill:#723b7f;}.cls-4{fill:#5c3066;}</style></defs><path class="cls-1" d="M78.52,81.24H2.72A2.72,2.72,0,0,1,0,78.52V2.72A2.72,2.72,0,0,1,2.72,0h75.8a2.72,2.72,0,0,1,2.72,2.72v75.8A2.71,2.71,0,0,1,78.52,81.24Z"/><path class="cls-2" d="M78.53,81.24H40.62V0H78.53a2.71,2.71,0,0,1,2.71,2.72V78.53A2.71,2.71,0,0,1,78.53,81.24Z"/><path class="cls-3" d="M76.48,76.48H4.76V4.76H76.48Z"/><path class="cls-4" d="M76.48,76.48H40.62V4.76H76.48Z"/><path class="cls-1" d="M27.44,28.82h4.64l10.28,27H37l-2.52-6.75H25l-2.48,6.75h-5.4Zm6.05,16.6L29.76,34.8,25.87,45.42Z"/><path class="cls-2" d="M53.56,56.24a10.34,10.34,0,1,1,0-20.68c5.07,0,10.4,3.36,10.4,10.24a17,17,0,0,1-.12,1.72H48.46c.07.78.92,5,5.29,5a5.17,5.17,0,0,0,4.72-2.7L62.85,51C62.12,52.54,59.62,56.24,53.56,56.24Zm5.18-12a5.19,5.19,0,0,0-10.36,0Z"/><polygon class="cls-2" points="40.62 51.27 40.62 55.86 42.36 55.86 40.62 51.27"/></svg>