<svg id="Layer_1" data-name="Layer 1" xmlns="http://www.w3.org/2000/svg" viewBox="0 0 39.01 39.01"><defs><style>.cls-1{fill:#e0fbfc;}</style></defs><path class="cls-1" d="M19.5,0A19.13,19.13,0,0,0,.2,19,19,19,0,0,0,13.4,37c1,.18,1.32-.41,1.32-.91s0-1.65,0-3.23c-5.37,1.14-6.5-2.55-6.5-2.55A5.09,5.09,0,0,0,6,27.51c-1.74-1.18.14-1.15.14-1.15a4,4,0,0,1,3,1.95,4.15,4.15,0,0,0,5.62,1.58A4,4,0,0,1,16,27.35c-4.29-.47-8.79-2.1-8.79-9.37a7.29,7.29,0,0,1,2-5.09,6.72,6.72,0,0,1,.17-5S11,7.36,14.65,9.81a18.51,18.51,0,0,1,9.65,0C28,7.36,29.59,7.87,29.59,7.87a6.76,6.76,0,0,1,.19,5,7.29,7.29,0,0,1,2,5.09c0,7.29-4.51,8.89-8.81,9.36a4.48,4.48,0,0,1,1.31,3.51c0,2.54,0,4.58,0,5.19s.34,1.09,1.33.9A18.94,18.94,0,0,0,38.81,19,19.14,19.14,0,0,0,19.5,0Z"/></svg>