<svg id="Layer_1" data-name="Layer 1" xmlns="http://www.w3.org/2000/svg" viewBox="0 0 81.24 81.24"><defs><style>.cls-1{fill:#ff5722;}.cls-2{fill:#fafafa;}</style></defs><polygon class="cls-1" points="5.08 0 11.55 73.12 40.62 81.24 69.68 73.13 76.17 0 5.08 0"/><polygon class="cls-2" points="62.13 23.91 40.62 23.91 28.05 23.91 28.87 33.1 40.62 33.1 61.31 33.1 58.87 60.64 40.62 65.73 40.61 65.74 22.37 60.64 21.09 46.23 30.03 46.23 30.7 53.71 40.61 56.4 40.62 56.4 40.62 56.4 50.55 53.7 51.59 42.07 40.62 42.07 40.62 42.07 20.73 42.07 18.32 14.95 40.62 14.95 62.92 14.95 62.13 23.91"/></svg>