<svg id="Layer_1" data-name="Layer 1" xmlns="http://www.w3.org/2000/svg" viewBox="0 0 140.82 134.49"><defs><style>.cls-1{fill:#293241;}.cls-2{fill:#e0fbfc;}</style></defs><circle class="cls-1" cx="70.41" cy="67.25" r="63.65"/><path class="cls-2" d="M107.17,42.38H53.26a1.6,1.6,0,0,0-1.39,2.41L75,85a1.6,1.6,0,0,1,0,1.61l-4,6.79L41.22,43.17a1.63,1.63,0,0,0-1.39-.79H33.14A1.09,1.09,0,0,0,32.2,44l37.44,63.3a1.61,1.61,0,0,0,2.78,0l36.14-62.52A1.6,1.6,0,0,0,107.17,42.38ZM80.48,77l-16-27.65H96.45Z"/></svg>