<svg id="Layer_1" data-name="Layer 1" xmlns="http://www.w3.org/2000/svg" viewBox="0 0 39.01 39.01"><defs><style>.cls-1{fill:#e0fbfc;}.cls-2{fill:#293241;}</style></defs><circle class="cls-1" cx="19.5" cy="19.5" r="19.5"/><path class="cls-2" d="M31.16,21.07v8H26.5v-7.5c0-1.88-.68-3.17-2.37-3.17a2.56,2.56,0,0,0-2.39,1.71,3.23,3.23,0,0,0-.15,1.13v7.83H16.93s.06-12.7,0-14h4.66v2l0,.05h0v-.05a4.63,4.63,0,0,1,4.2-2.32c3.07,0,5.37,2,5.37,6.31ZM12.05,8.33A2.43,2.43,0,1,0,12,13.18h0a2.43,2.43,0,1,0,0-4.85ZM9.69,29.11h4.66v-14H9.69Z"/></svg>