<svg id="Layer_1" data-name="Layer 1" xmlns="http://www.w3.org/2000/svg" viewBox="0 0 99.03 180.99"><defs><style>.cls-1{fill:#425ac2;}.cls-2{fill:#ffdee0;}.cls-3{fill:#3d5a80;}.cls-4{fill:#ccc;}.cls-5{fill:#d6bdbf;}.cls-6{fill:#0f0f0f;}</style></defs><path class="cls-1" d="M72.93,100.06H25.11v11.48c0,6.21,3.91,9,10.12,9H71.8c6.21,0,12.38-2.79,12.38-9v-.23A11.25,11.25,0,0,0,72.93,100.06Z"/><path class="cls-1" d="M83.68,109.81l5.7,64.67H80.72S68.58,135.65,67.2,121.79s6.93-15.29,6.93-15.29Z"/><path class="cls-1" d="M56.12,108.93,62,174.48H53.35S40.61,132.4,39.22,118.55s7.55-12,7.55-12Z"/><path class="cls-2" d="M89.2,174.48H80.72V181H97.93c1.14,0,1.53-2.56.53-3.11Z"/><path class="cls-2" d="M62,174.48H53.52V181H70.74c1.13,0,1.52-2.56.53-3.11Z"/><path class="cls-3" d="M25.13,100.5H60.81l4.45-52.86a8.11,8.11,0,0,0-8.09-8.8H28.76a8.12,8.12,0,0,0-8.09,8.8Z"/><path class="cls-2" d="M40.72,42.13h5.54a3.33,3.33,0,0,0,3.12-3.51V31.79a3.34,3.34,0,0,0-3.12-3.52H40.72a3.34,3.34,0,0,0-3.12,3.52v6.83A3.33,3.33,0,0,0,40.72,42.13Z"/><polygon class="cls-3" points="64.45 43.69 81.39 72.81 68.21 78.4 57.72 61.17 64.45 43.69"/><path class="cls-3" d="M20.83,40.19A66.24,66.24,0,0,0,.44,73.74c-1,2.21-.23,5.74,2.08,6.5L34.87,96.38l4.5-7.62L16.73,71.52,33.36,53.59l-.86-14.7S23.32,38,20.83,40.19Z"/><rect class="cls-4" x="33.76" y="96.16" width="55.7" height="4.72"/><path class="cls-2" d="M34.28,96.29h14.2l1-6.23H38.8a4.11,4.11,0,0,0-4.06,3.43Z"/><polygon class="cls-4" points="44.7 96.35 89.42 96.35 95.55 68.66 50.83 68.66 44.7 96.35"/><path class="cls-1" d="M68.06,83.25A2.95,2.95,0,1,0,71,80.31,2.95,2.95,0,0,0,68.06,83.25Z"/><path class="cls-5" d="M49.39,31.18v5.06a10.79,10.79,0,0,1-3.44.55c-4.23,0-8.39-5.51-8.53-6.16Z"/><path class="cls-2" d="M56.79,28.26c-2.23,7.54-8.53,6.38-16.06,4.16A14.22,14.22,0,1,1,48.79,5.14C56.32,7.36,59,20.73,56.79,28.26Z"/><path class="cls-6" d="M34.77,29.28c.81.74,4-.3,2-2.6-2.38-2.8-4.54-7.67-.65-8.53s2.81,3.78,4.54,3.78.22-6.16.86-9.61,9.51-3,13.83-3.68S60.26-1.3,49.14,0c-7.5.87-13,3.13-17.72,10.26C27.82,15.66,29.58,24.52,34.77,29.28Z"/></svg>