<svg id="Layer_1" data-name="Layer 1" xmlns="http://www.w3.org/2000/svg" viewBox="0 0 81.24 81.24"><defs><style>.cls-1{fill:#689f63;}</style></defs><path class="cls-1" d="M40.64,81.24a6.29,6.29,0,0,1-3.13-.83l-9.93-5.88c-1.49-.83-.76-1.13-.28-1.3a19.9,19.9,0,0,0,4.5-2,.76.76,0,0,1,.74.06l7.63,4.53a1,1,0,0,0,.93,0L70.87,58.58a.93.93,0,0,0,.45-.8V23.42a1,1,0,0,0-.46-.82L41.1,5.43a.92.92,0,0,0-.91,0L10.43,22.6a1,1,0,0,0-.47.82V57.77a.93.93,0,0,0,.46.8l8.16,4.71c4.42,2.21,7.13-.4,7.13-3V26.35a.85.85,0,0,1,.86-.85h3.77a.85.85,0,0,1,.86.85V60.27c0,5.91-3.22,9.3-8.82,9.3-1.72,0-3.07,0-6.86-1.87L7.71,63.2a6.29,6.29,0,0,1-3.12-5.43V23.42A6.25,6.25,0,0,1,7.71,18L37.51.8a6.51,6.51,0,0,1,6.26,0L73.53,18a6.27,6.27,0,0,1,3.13,5.42V57.78a6.28,6.28,0,0,1-3.13,5.42L43.77,80.39a6.16,6.16,0,0,1-3.14.84"/><path class="cls-1" d="M49.83,57.57c-13,0-15.76-6-15.76-11a.86.86,0,0,1,.87-.86h3.84a.86.86,0,0,1,.85.73c.58,3.92,2.31,5.89,10.19,5.89,6.27,0,8.94-1.41,8.94-4.74,0-1.92-.76-3.34-10.51-4.29-8.15-.81-13.19-2.6-13.19-9.12,0-6,5.07-9.59,13.56-9.59,9.53,0,14.25,3.31,14.85,10.42a.88.88,0,0,1-.23.66.9.9,0,0,1-.63.28H58.74a.87.87,0,0,1-.84-.67c-.93-4.12-3.18-5.44-9.3-5.44C41.76,29.85,41,32.23,41,34c0,2.17.94,2.8,10.18,4S64.63,41,64.63,47.41s-5.41,10.2-14.84,10.2"/></svg>