<svg id="Layer_1" data-name="Layer 1" xmlns="http://www.w3.org/2000/svg" viewBox="0 0 81.24 81.24"><defs><style>.cls-1{fill:#f8d9ff;}.cls-2{fill:#f3c0ff;}.cls-3{fill:#723b7f;}.cls-4{fill:#5c3066;}</style></defs><path class="cls-1" d="M75.79,81.24H2.73A2.72,2.72,0,0,1,0,78.52V2.73A2.73,2.73,0,0,1,2.73,0H78.52a2.72,2.72,0,0,1,2.72,2.73V75.79A5.45,5.45,0,0,1,75.79,81.24Z"/><path class="cls-2" d="M78.51,81.24H40.62V0H78.51a2.73,2.73,0,0,1,2.73,2.73V78.51A2.73,2.73,0,0,1,78.51,81.24Z"/><path class="cls-3" d="M76.48,76.48H4.76V4.76H76.48Z"/><path class="cls-4" d="M76.48,76.48H40.62V4.76H76.48Z"/><path class="cls-1" d="M24.9,55.86v-27H36.37c5.24,0,8.6,4.82,8.6,9,0,4.91-3.73,9-8.41,9h-6.4v9.07Zm5.26-13.68h6.09c1.85,0,3.39-1.72,3.39-4.38,0-2.28-1.39-4.38-3.62-4.38H30.16Z"/><path class="cls-2" d="M60,40.32c-4.49,0-6.25,2.32-6.78,3.46V55.86H48.13v-20h4.69v4.27c.35-.69,2.59-5,7.2-4.5v4.65Z"/><path class="cls-2" d="M40.62,30V45.67A9.1,9.1,0,0,0,45,37.8,9.48,9.48,0,0,0,40.62,30Z"/></svg>