<svg id="Layer_1" data-name="Layer 1" xmlns="http://www.w3.org/2000/svg" viewBox="0 0 81.24 81.24"><defs><style>.cls-1{fill:#ccefff;}.cls-2{fill:#ace3fc;}.cls-3{fill:#0c61c6;}.cls-4{fill:#0a4eaf;}</style></defs><path class="cls-1" d="M78.53,81.24H2.71A2.71,2.71,0,0,1,0,78.53V2.71A2.71,2.71,0,0,1,2.71,0H78.53a2.71,2.71,0,0,1,2.71,2.71V78.53A2.71,2.71,0,0,1,78.53,81.24Z"/><path class="cls-2" d="M78.53,81.24H40.62V0H78.53a2.71,2.71,0,0,1,2.71,2.71V78.53A2.71,2.71,0,0,1,78.53,81.24Z"/><path class="cls-3" d="M76.48,76.48H4.76V4.76H76.48Z"/><path class="cls-4" d="M76.48,76.48H40.62V4.76H76.48Z"/><path class="cls-1" d="M22.35,55.86v-27H33.82c5.24,0,8.6,4.82,8.6,9,0,4.91-3.73,9-8.41,9h-6.4v9.07Zm5.26-13.68H33.7c1.84,0,3.39-1.72,3.39-4.38,0-2.28-1.39-4.38-3.62-4.38H27.61Z"/><path class="cls-2" d="M53.12,56.24a14.36,14.36,0,0,1-9-3.09L46,50a13.05,13.05,0,0,0,7,2.63c1.93,0,3.27-.81,3.27-2.21,0-1.71-2.83-2.27-4.38-2.7-1.29-.36-7.12-1.18-7.12-5.56,0-4.23,3.68-6.59,7.85-6.59a11.11,11.11,0,0,1,7.8,2.74l-2,3.09a10.29,10.29,0,0,0-5.79-2.21c-1.85,0-3.05.79-3.05,2.24,0,1.82,3.19,2.34,3.93,2.52,1.37.35,7.73,1.32,7.73,6C61.2,55.46,55.61,56.24,53.12,56.24Z"/><path class="cls-2" d="M40.62,32.43V43.35a9.18,9.18,0,0,0,0-10.92Z"/></svg>