<svg id="Layer_1" data-name="Layer 1" xmlns="http://www.w3.org/2000/svg" viewBox="0 0 81.24 81.24"><defs><style>.cls-1{fill:#60d9fa;}.cls-2{fill:#3d5a80;}.cls-3{fill:#61d9fa;}</style></defs><path class="cls-1" d="M59.09,4.53c5,2,6.37,6.19,6.57,11.06a39.55,39.55,0,0,1-1.13,10.23c-.22,1-.06,1.24.9,1.53a35.48,35.48,0,0,1,11,5.17c6.4,4.7,6.41,11.42,0,16.11a35.93,35.93,0,0,1-11,5.19c-1,.28-1.13.55-.91,1.52,1,4.38,1.65,8.8.78,13.3a10.73,10.73,0,0,1-2.44,5.42c-2.78,3-6.22,3.12-9.83,2a29.29,29.29,0,0,1-11.21-7.2c-1-.92-1.44-.9-2.42,0-3.7,3.41-7.64,6.47-12.71,7.61s-9.07-1.36-10.42-6.29c-1.24-4.5-.75-9,.14-13.46a7.24,7.24,0,0,1,.28-1.34c.38-1,.05-1.24-.9-1.52a36.44,36.44,0,0,1-10.72-5,15.84,15.84,0,0,1-3.25-3.08,8.24,8.24,0,0,1,.46-10.87c3.55-4,8.3-5.86,13.19-7.41,1.24-.4,1.46-.77,1.18-2a33.61,33.61,0,0,1-.85-12.28c.57-4.07,2.45-7.07,6.34-8.67h4.49c5,.93,11.23,4.78,13.86,8.46,4.13-3.76,8.15-7.67,14.1-8.46Z"/><path class="cls-2" d="M40.57,53.48c-2,0-4,0-6,0a2.05,2.05,0,0,1-2-1.06,116.37,116.37,0,0,1-6.29-10.88,2,2,0,0,1,0-1.93,114,114,0,0,1,6.39-11,1.83,1.83,0,0,1,1.69-.92q6.21,0,12.43,0a1.93,1.93,0,0,1,1.83,1,116.3,116.3,0,0,1,6.3,10.87,2.08,2.08,0,0,1,0,2.09,118,118,0,0,1-6.2,10.73,2.19,2.19,0,0,1-2.11,1.14C44.6,53.44,42.59,53.48,40.57,53.48Z"/><path class="cls-2" d="M19,16.6a14.2,14.2,0,0,1,.67-4.73c.9-3.15,3.13-4.43,6.31-3.71a21.58,21.58,0,0,1,9,4.94c3.3,2.73,3.25,2.77.4,6A15.57,15.57,0,0,0,33,22.24c-1,2.06-2.8,2.47-4.78,2.62a39.25,39.25,0,0,0-6.28,1c-1.07.25-1.67.07-1.89-1.22A43.87,43.87,0,0,1,19,16.6Z"/><path class="cls-2" d="M62.19,16.78a43,43,0,0,1-1,8.21c-.16.94-.76,1.07-1.51.9a75.86,75.86,0,0,0-9-1.34,1.41,1.41,0,0,1-1.09-.7,92.27,92.27,0,0,0-5.83-7.24c-.41-.44-.59-.8,0-1.28,3.45-3.05,6.92-6.08,11.58-7.17,3-.71,5.2.45,6.19,3.42A13.66,13.66,0,0,1,62.19,16.78Z"/><path class="cls-2" d="M62.19,64.41a13.74,13.74,0,0,1-.86,5.42c-1,2.76-3.13,3.87-6,3.21A21.77,21.77,0,0,1,46,67.81c-3-2.57-2.9-2.6-.32-5.53a23.67,23.67,0,0,0,2.34-3,5.55,5.55,0,0,1,4.92-3,30.11,30.11,0,0,0,6.78-1.06c.8-.2,1.29,0,1.45.86A43.22,43.22,0,0,1,62.19,64.41Z"/><path class="cls-2" d="M19,64.47a44.85,44.85,0,0,1,1.07-8.38c.16-1,.7-1,1.47-.83a63.56,63.56,0,0,0,9,1.36,1.42,1.42,0,0,1,1.11.67,89.45,89.45,0,0,0,5.83,7.23c.38.42.65.79.09,1.28-3.41,3-6.79,6-11.38,7.14-3.27.8-5.41-.31-6.44-3.45A13.58,13.58,0,0,1,19,64.47Z"/><path class="cls-2" d="M3.49,40.78A6.16,6.16,0,0,1,6.1,36c3.22-2.71,7.09-4.13,11-5.38.74-.23.94.11,1.1.64a82.91,82.91,0,0,0,3.37,8.63,2,2,0,0,1-.17,1.78c-1.13,2.63-2.24,5.27-3.11,8-.19.59-.27,1.19-1.26.88C13.28,49.33,9.58,48,6.44,45.45,4.9,44.21,3.6,42.78,3.49,40.78Z"/><path class="cls-2" d="M77.75,40.44a6.08,6.08,0,0,1-2.52,4.64C72,47.87,68.06,49.3,64.05,50.56c-.77.24-.92-.2-1.07-.69a82.92,82.92,0,0,0-3.3-8.47,2,2,0,0,1,.07-1.79,82.25,82.25,0,0,0,3.17-8.15c.2-.62.34-1.12,1.29-.81,3.73,1.19,7.38,2.53,10.48,5C76.3,36.9,77.66,38.36,77.75,40.44Z"/><path class="cls-2" d="M45.22,24.11H36.1c1.13-2.06,2.78-3.58,4.16-5.29.33-.41.56-.19.8.1A49.66,49.66,0,0,1,45.22,24.11Z"/><path class="cls-2" d="M36,57h9.1A29.8,29.8,0,0,1,41,62.29c-.3.36-.6.13-.85-.15A36.28,36.28,0,0,1,36,57Z"/><path class="cls-2" d="M28.66,28.18,24,36.24a42.74,42.74,0,0,1-2.4-6c-.23-.63.14-.78.67-.87C24.26,29,26.27,28.62,28.66,28.18Z"/><path class="cls-2" d="M52.57,28.19l6.53,1.17c.49.08.75.3.58.8a47.25,47.25,0,0,1-2.4,6.1C55.72,33.6,54.26,31.09,52.57,28.19Z"/><path class="cls-2" d="M52.6,53l4.64-8.06A41.81,41.81,0,0,1,59.66,51c.18.49,0,.74-.52.83C57.07,52.15,55,52.53,52.6,53Z"/><path class="cls-2" d="M23.88,44.75,28.64,53c-2.34-.42-4.4-.81-6.46-1.15-.6-.1-.79-.35-.57-.93C22.34,48.92,23.07,47,23.88,44.75Z"/><path class="cls-3" d="M47.76,40.64a6.89,6.89,0,0,1-7.19,7.07,6.9,6.9,0,0,1-7.1-7.18,6.91,6.91,0,0,1,7.2-7.08A6.9,6.9,0,0,1,47.76,40.64Z"/></svg>