<svg id="Layer_1" data-name="Layer 1" xmlns="http://www.w3.org/2000/svg" viewBox="0 0 438.79 566.09"><defs><style>.cls-1{fill:#e0fbfc;}.cls-2{fill:#425ac2;}.cls-3{fill:#3d5a80;}.cls-4{fill:#ffdee0;}.cls-5{fill:none;}.cls-6{fill:#d6bdbf;}.cls-7{fill:#0f0f0f;}</style></defs><path class="cls-1" d="M342.1,78.14,332.68,93l-15.32-9.71,9.42-14.85Zm61.66-53.43q3,10.86-4.14,22.16-7.78,12.26-19.3,13.62t-24.76-6.7l-8.22,13-12.73-8.08,13.91-21.91,5.65,3.58q10.26,6.51,18.28,6.89t13.78-8.7q3.88-6.12,2.55-11.84t-7.33-9.53c-4.25-2.7-8.44-3.64-12.57-2.85a14.81,14.81,0,0,0-9.95,7.07l-12.84-8.15A27.33,27.33,0,0,1,357.23,2.71a26.86,26.86,0,0,1,15-2.54,38.49,38.49,0,0,1,16.71,6.22Q400.73,13.86,403.76,24.71Z"/><path class="cls-1" d="M139.36,47.5l6.13,7.66-7.9,6.31-6.13-7.65Zm-17-42.19q6.27.36,10.94,6.19,5.06,6.33,3.68,12.65T129,36l5.35,6.68-6.57,5.25-9-11.3,2.92-2.33q5.28-4.23,6.94-8.39t-2.09-8.84a8.49,8.49,0,0,0-5.78-3.5,8.63,8.63,0,0,0-6.36,2.15,9.47,9.47,0,0,0-3.78,6.11,8.27,8.27,0,0,0,1.93,6.53l-6.62,5.29a15.15,15.15,0,0,1-3.54-7.78,14.94,14.94,0,0,1,1.38-8.37A21.54,21.54,0,0,1,110,9.8Q116.07,4.94,122.35,5.31Z"/><path class="cls-2" d="M163.77,314.46H274L271.06,550H250S234.07,431.5,228.07,366h-14.6l-4.39,184H188s-24.85-184.72-24.18-220.33C163.28,327,163.77,314.46,163.77,314.46Z"/><path class="cls-3" d="M163.77,314.46H274L287.77,168c1.23-11.94-10.31-22.2-25-22.2H175c-14.69,0-26.23,10.26-25,22.2Z"/><path class="cls-4" d="M224.11,172.8a4.6,4.6,0,0,1-8.42.36C210.8,163.09,200,148.07,200,144.88V123.27c0-4.89,7.3-4.48,11.65-4.48h14c4.34,0,11.64,4,11.64,8.86v17.23C237.27,148,228,162.75,224.11,172.8Z"/><path class="cls-3" d="M241.88,184.17l78.86,32.44a19.49,19.49,0,0,0,21.44-4.49l70.61-72.84-13.7-15.59L330.33,176S289,151.09,272.48,146.84c-7.4-1.9-25.75,17.95-25.75,17.95Z"/><path class="cls-4" d="M271.36,549.67H250v16.42h43.42c2.86,0,3.85-6.43,1.34-7.82Z"/><path class="cls-4" d="M187.58,549.67H209v16.42H165.57c-2.86,0-3.85-6.43-1.34-7.82Z"/><path class="cls-5" d="M163.77,314.46H274L271.06,550H250S234.07,431.5,228.07,366h-14.6l-4.39,184H188s-24.85-184.72-24.18-220.33C163.28,327,163.77,314.46,163.77,314.46Z"/><path class="cls-4" d="M399.09,123.69s-3.77-17.79.48-17.79,5.69,10.45,7.56,11c4.09,1.26,9.6-4.57,15.74-9.76s16.32-4.43,15.91.94c-.79,10.4-26,31.18-26,31.18Z"/><path class="cls-3" d="M196.91,184.17l-78.86,32.44a19.49,19.49,0,0,1-21.44-4.49L26,139.28l13.7-15.59L108.46,176s41.31-24.86,57.85-29.11c7.4-1.9,25.75,17.95,25.75,17.95Z"/><path class="cls-4" d="M39.7,123.69s3.78-17.79-.48-17.79-5.69,10.45-7.56,11c-4.09,1.26-9.6-4.57-15.74-9.76S-.4,102.73,0,108.1c.79,10.4,26,31.18,26,31.18Z"/><path class="cls-6" d="M200,128.64l0,16.24a32.52,32.52,0,0,0,10.73,1.76c13.28,0,26.33-17.72,26.75-19.78Z"/><path class="cls-4" d="M179,118.77c6.78,23,26,19.45,48.94,12.66a43.35,43.35,0,1,0-24.57-83.15C180.36,55.07,172.16,95.81,179,118.77Z"/><path class="cls-7" d="M250.09,115.7c-2.53,2.19-12.15-1.25-6-8.08,7.49-8.35,14.49-23,2.71-25.95S237.89,93,232.63,92.8,232.5,74,230.82,63.44s-28.7-10-41.81-12.39-14-30.69,19.83-25.79c22.76,3.31,39.23,10.66,53.1,32.8C272.43,74.81,266.3,101.66,250.09,115.7Z"/></svg>